<?xml version="1.0" encoding="UTF-8"?>
<svg width="1000px" height="1000px" viewBox="0 0 1000 1000" version="1.1" xmlns="http://www.w3.org/2000/svg" xmlns:xlink="http://www.w3.org/1999/xlink">
    <!-- Generator: Sketch 64 (93537) - https://sketch.com -->
    <title>05</title>
    <desc>Created with Sketch.</desc>
    <defs>
        <linearGradient x1="91.6078771%" y1="7.94396633%" x2="184.758576%" y2="-173.933217%" id="linearGradient-1">
            <stop stop-color="#0B183A" offset="0%"></stop>
            <stop stop-color="#A11BD5" offset="100%"></stop>
        </linearGradient>
    </defs>
    <g id="05" stroke="none" stroke-width="1" fill="none" fill-rule="evenodd">
        <rect id="Rectangle" fill="url(#linearGradient-1)" x="0" y="0" width="1000" height="1000"></rect>
        <path d="M268.58,535 C272.36,535 275.72,534.52 278.66,533.56 C281.6,532.6 284.075,531.2725 286.085,529.5775 C288.095,527.8825 289.625,525.865 290.675,523.525 C291.725,521.185 292.25,518.635 292.25,515.875 C292.25,508.225 287.78,503.395 278.84,501.385 C280.85,500.695 282.5825,499.855 284.0375,498.865 C285.4925,497.875 286.6925,496.7725 287.6375,495.5575 C288.5825,494.3425 289.28,493.0375 289.73,491.6425 C290.18,490.2475 290.405,488.785 290.405,487.255 C290.405,484.585 289.955,482.185 289.055,480.055 C288.155,477.925 286.7375,476.11 284.8025,474.61 C282.8675,473.11 280.3925,471.955 277.3775,471.145 C274.3625,470.335 270.725,469.93 266.465,469.93 L266.465,469.93 L244.01,469.93 L244.01,535 L268.58,535 Z M265.79,498.1 L256.115,498.1 L256.115,479.29 L266.465,479.29 C270.545,479.29 273.545,480.01 275.465,481.45 C277.385,482.89 278.345,485.305 278.345,488.695 C278.345,491.965 277.28,494.35 275.15,495.85 C273.02,497.35 269.9,498.1 265.79,498.1 L265.79,498.1 Z M268.4,525.55 L256.115,525.55 L256.115,506.47 L268.355,506.47 C270.485,506.47 272.3,506.68 273.8,507.1 C275.3,507.52 276.53,508.1275 277.49,508.9225 C278.45,509.7175 279.155,510.6775 279.605,511.8025 C280.055,512.9275 280.28,514.195 280.28,515.605 C280.28,516.955 280.0775,518.23 279.6725,519.43 C279.2675,520.63 278.6075,521.68 277.6925,522.58 C276.7775,523.48 275.5625,524.2 274.0475,524.74 C272.5325,525.28 270.65,525.55 268.4,525.55 L268.4,525.55 Z M320.75,535 C321.77,535 322.6325,534.715 323.3375,534.145 C324.0425,533.575 324.515,532.945 324.755,532.255 L324.755,532.255 L329.615,518.98 L356.57,518.98 L361.43,532.255 C361.73,533.035 362.2175,533.6875 362.8925,534.2125 C363.5675,534.7375 364.43,535 365.48,535 L365.48,535 L374.84,535 L349.28,469.93 L336.905,469.93 L311.345,535 L320.75,535 Z M353.465,510.43 L332.72,510.43 L340.64,488.875 C341.03,487.885 341.4275,486.73 341.8325,485.41 C342.2375,484.09 342.65,482.665 343.07,481.135 C343.49,482.665 343.9175,484.0825 344.3525,485.3875 C344.7875,486.6925 345.185,487.825 345.545,488.785 L345.545,488.785 L353.465,510.43 Z M407.21,535 L407.21,495.04 C407.21,494.26 407.1875,493.3975 407.1425,492.4525 C407.0975,491.5075 407.03,490.555 406.94,489.595 L406.94,489.595 L440.96,532.93 C441.56,533.71 442.175,534.25 442.805,534.55 C443.435,534.85 444.23,535 445.19,535 L445.19,535 L451.445,535 L451.445,469.93 L440.78,469.93 L440.78,509.485 C440.78,510.355 440.8025,511.2925 440.8475,512.2975 C440.8925,513.3025 440.975,514.33 441.095,515.38 L441.095,515.38 L406.94,471.865 C406.61,471.445 406.31,471.1075 406.04,470.8525 C405.77,470.5975 405.4925,470.4025 405.2075,470.2675 C404.9225,470.1325 404.6,470.0425 404.24,469.9975 C403.88,469.9525 403.43,469.93 402.89,469.93 L402.89,469.93 L396.545,469.93 L396.545,535 L407.21,535 Z M492.095,535 L492.095,506.38 L495.92,506.38 C497.3,506.38 498.365,506.5525 499.115,506.8975 C499.865,507.2425 500.54,507.805 501.14,508.585 L501.14,508.585 L519.545,532.615 C520.025,533.395 520.6175,533.9875 521.3225,534.3925 C522.0275,534.7975 523.1,535 524.54,535 L524.54,535 L535.25,535 L512.66,504.535 C511.91,503.515 511.1375,502.675 510.3425,502.015 C509.5475,501.355 508.655,500.845 507.665,500.485 C508.385,500.125 509.06,499.66 509.69,499.09 C510.32,498.52 510.98,497.815 511.67,496.975 L511.67,496.975 L533.585,469.93 L523.145,469.93 C521.885,469.93 520.8425,470.1175 520.0175,470.4925 C519.1925,470.8675 518.405,471.535 517.655,472.495 L517.655,472.495 L499.7,495.22 C499.16,495.91 498.515,496.4125 497.765,496.7275 C497.015,497.0425 496.07,497.2 494.93,497.2 L494.93,497.2 L492.095,497.2 L492.095,469.885 L479.99,469.885 L479.99,535 L492.095,535 Z M566.585,535 L566.585,471.325 L561.95,471.325 L561.95,535 L566.585,535 Z M606.2,535 L606.2,481.405 C606.2,480.595 606.155,479.74 606.065,478.84 L606.065,478.84 L647.465,534.1 C647.885,534.7 648.44,535 649.13,535 L649.13,535 L651.335,535 L651.335,471.325 L647.285,471.325 L647.285,524.74 C647.285,525.58 647.33,526.45 647.42,527.35 L647.42,527.35 L606.2,472.18 C605.93,471.82 605.675,471.5875 605.435,471.4825 C605.195,471.3775 604.865,471.325 604.445,471.325 L604.445,471.325 L602.195,471.325 L602.195,535 L606.2,535 Z M711.65,535.675 C716.18,535.675 720.305,534.9025 724.025,533.3575 C727.745,531.8125 730.94,529.6225 733.61,526.7875 C736.28,523.9525 738.35,520.5325 739.82,516.5275 C741.29,512.5225 742.025,508.06 742.025,503.14 C742.025,498.25 741.29,493.8025 739.82,489.7975 C738.35,485.7925 736.28,482.365 733.61,479.515 C730.94,476.665 727.745,474.4675 724.025,472.9225 C720.305,471.3775 716.18,470.605 711.65,470.605 C707.18,470.605 703.085,471.385 699.365,472.945 C695.645,474.505 692.45,476.7025 689.78,479.5375 C687.11,482.3725 685.0325,485.7925 683.5475,489.7975 C682.0625,493.8025 681.32,498.25 681.32,503.14 C681.32,508.06 682.0625,512.5225 683.5475,516.5275 C685.0325,520.5325 687.11,523.9525 689.78,526.7875 C692.45,529.6225 695.645,531.8125 699.365,533.3575 C703.085,534.9025 707.18,535.675 711.65,535.675 Z M711.65,531.67 C707.87,531.67 704.4125,531.025 701.2775,529.735 C698.1425,528.445 695.4425,526.57 693.1775,524.11 C690.9125,521.65 689.1575,518.6575 687.9125,515.1325 C686.6675,511.6075 686.045,507.61 686.045,503.14 C686.045,498.7 686.6675,494.71 687.9125,491.17 C689.1575,487.63 690.9125,484.63 693.1775,482.17 C695.4425,479.71 698.1425,477.8275 701.2775,476.5225 C704.4125,475.2175 707.87,474.565 711.65,474.565 C715.49,474.565 718.985,475.2175 722.135,476.5225 C725.285,477.8275 727.9775,479.71 730.2125,482.17 C732.4475,484.63 734.18,487.63 735.41,491.17 C736.64,494.71 737.255,498.7 737.255,503.14 C737.255,507.61 736.64,511.6075 735.41,515.1325 C734.18,518.6575 732.4475,521.65 730.2125,524.11 C727.9775,526.57 725.285,528.445 722.135,529.735 C718.985,531.025 715.49,531.67 711.65,531.67 Z" id="BANKINO" fill="#FFFFFF" fill-rule="nonzero"></path>
    </g>
</svg>