<?xml version="1.0" encoding="UTF-8"?>
<svg width="95px" height="94px" viewBox="0 0 95 94" version="1.1" xmlns="http://www.w3.org/2000/svg" xmlns:xlink="http://www.w3.org/1999/xlink">
    <!-- Generator: Sketch 64 (93537) - https://sketch.com -->
    <title>Group 5</title>
    <desc>Created with Sketch.</desc>
    <g id="Page-1" stroke="none" stroke-width="1" fill="none" fill-rule="evenodd">
        <g id="Artboard" transform="translate(-1363.000000, -344.000000)">
            <g id="Group-5" transform="translate(1360.000000, 341.000000)">
                <rect id="Rectangle" x="0" y="0" width="100" height="100"></rect>
                <g id="idea-(1)" transform="translate(3.000000, 3.000000)" fill="#7002FF" fill-rule="nonzero">
                    <path d="M47.2971779,19.8013804 C47.2919325,19.8013804 47.2863957,19.8013804 47.2811503,19.8013804 L47.2327761,19.8013804 C47.2275307,19.8013804 47.2222853,19.8013804 47.2167485,19.8013804 C39.8064571,19.8176994 32.860092,22.6432209 27.6505368,27.7618558 C22.3969785,32.923911 19.5035583,39.8455061 19.5035583,47.251135 C19.5035583,55.5525613 23.0774233,63.212592 29.3083742,68.2668252 C30.2700307,69.0472239 31.8832822,71.5335429 31.8832822,79.4185429 L31.8832822,92.1065798 C31.8832822,93.0720245 32.6663037,93.855046 33.6317485,93.855046 L60.8807209,93.855046 C61.8461656,93.855046 62.6291871,93.0720245 62.6291871,92.1065798 L62.6291871,79.4185429 C62.6291871,79.4045552 62.6274387,79.3914417 62.6271472,79.3777454 C62.6274387,79.3637577 62.6291871,79.3503528 62.6291871,79.3366564 C62.6291871,71.3793865 64.2427301,68.8831595 65.2055521,68.1027607 C71.5277147,62.9721779 75.0097853,55.5668405 75.0097853,47.2508436 C75.0097853,39.8449233 72.1166564,32.9236196 66.8633896,27.7615644 C61.6541258,22.6432209 54.7077607,19.8176994 47.2971779,19.8013804 Z M59.1328374,90.3581135 L35.3807975,90.3581135 L35.3807975,81.1670092 L51.9259509,81.1670092 C52.0031748,81.1775 52.0809816,81.1847853 52.1611196,81.1847853 C52.2412577,81.1847853 52.3190644,81.1777914 52.3962883,81.1670092 L59.1328374,81.1670092 L59.1328374,90.3581135 L59.1328374,90.3581135 Z M43.8387117,53.2629448 L50.7098926,53.2629448 C50.5458282,59.8730215 50.4339264,71.1249847 50.4152761,77.6700767 L44.1309969,77.6700767 C44.1123466,71.6098926 44.0053988,60.0536963 43.8387117,53.2629448 Z M63.0030675,65.3873926 C60.6044632,67.3319785 59.343819,71.3624847 59.1596472,77.6700767 L53.9122086,77.6700767 C53.9314417,70.4955368 54.0587883,59.4787423 54.207408,53.2629448 L57.9462117,53.2629448 C61.0797546,53.2629448 63.7269325,50.4878374 63.7269325,47.2027607 C63.7269325,43.9928681 61.0797546,41.2812883 57.9462117,41.2812883 C55.0714417,41.2812883 51.7196319,43.0810429 50.9336963,48.1335276 C50.8949387,48.3835583 50.857638,48.9509356 50.8217945,49.7660123 L43.7285583,49.7660123 C43.6915491,48.9171319 43.6527914,48.3252761 43.6122853,48.063589 C43.0947393,44.7176074 40.981135,41.1419939 36.601227,41.1419939 C33.4682669,41.1419939 30.8216718,43.9173926 30.8216718,47.2027607 C30.8216718,50.4878374 33.4682669,53.2629448 36.601227,53.2629448 L40.3406135,53.2629448 C40.4892331,59.5090491 40.6159969,70.5130215 40.6349387,77.6700767 L35.3510736,77.6700767 C35.156411,71.4647699 33.8978067,67.4870092 31.5120245,65.5511656 C26.1031442,61.1639724 23.0007822,54.493865 23.0007822,47.251135 C23.0007822,40.791135 25.522362,34.7554294 30.1015951,30.2563344 C34.6624693,25.7750153 40.7544172,23.3044325 47.2569632,23.2983129 C53.760092,23.3044325 59.8517485,25.7750153 64.4123313,30.2563344 C68.991273,34.7554294 71.5128528,40.7908436 71.5128528,47.251135 C71.5128528,54.4929908 68.4906288,60.9337577 63.0030675,65.3873926 Z M54.3152301,49.7660123 C54.3397086,49.2117485 54.3644785,48.8346626 54.3889571,48.6694325 C54.9158282,45.2835276 56.8435123,44.7779294 57.9459202,44.7779294 C59.1625613,44.7779294 60.2297086,45.9109356 60.2297086,47.2024693 C60.2297086,48.5441258 59.1412883,49.7657209 57.9459202,49.7657209 L54.3152301,49.7657209 L54.3152301,49.7660123 Z M40.2333742,49.7660123 L36.6009356,49.7660123 C35.4061503,49.7660123 34.3183129,48.5444172 34.3183129,47.2027607 C34.3183129,45.8611043 35.4061503,44.6389264 36.6009356,44.6389264 C39.161273,44.6389264 39.9273926,47.1194172 40.1558589,48.5986196 C40.1815031,48.7708436 40.2074387,49.1732822 40.2333742,49.7660123 Z" id="Shape"></path>
                    <path d="M59.6396012,17.7746166 C59.8639877,17.8707822 60.0976994,17.9165337 60.3273313,17.9165337 C61.0057362,17.9165337 61.6512117,17.5193405 61.9353374,16.856089 L67.9547239,2.81095092 C68.3353067,1.92331288 67.9241258,0.895506135 67.0364877,0.515214724 C66.1485583,0.133757669 65.1207515,0.545812883 64.7407515,1.43345092 L58.721365,15.478589 C58.3407822,16.3665184 58.7519632,17.3943252 59.6396012,17.7746166 Z" id="Path"></path>
                    <path d="M32.6622239,16.8581288 C32.9355675,17.5417791 33.5921166,17.9576227 34.2862577,17.9576227 C34.5021933,17.9576227 34.7222086,17.9171166 34.9352301,17.8320245 C35.8316104,17.4732975 36.2678528,16.4556902 35.9094172,15.5590184 L30.2338957,1.37138037 C29.8754601,0.475 28.8581442,0.0384662577 27.9608896,0.397193252 C27.0645092,0.755920245 26.6282669,1.77352761 26.9867025,2.67019939 L32.6622239,16.8581288 Z" id="Path"></path>
                    <path d="M1.16447853,30.2368098 L15.2081595,36.2596933 C15.4331288,36.3558589 15.6665491,36.4016104 15.8964724,36.4016104 C16.5745859,36.4016104 17.2200613,36.0044172 17.5044785,35.3417485 C17.8850613,34.4541104 17.4741718,33.4263037 16.5868252,33.0454294 L2.54285276,27.0228374 C1.6546319,26.642546 0.627116564,27.0531442 0.246533742,27.9404908 C-0.133757669,28.8281288 0.277131902,29.856227 1.16447853,30.2368098 Z" id="Path"></path>
                    <path d="M15.2874233,59.068727 L1.09920245,64.747454 C0.202822086,65.106181 -0.233128834,66.1240798 0.12559816,67.0204601 C0.399233129,67.7041104 1.0554908,68.1196626 1.74934049,68.1196626 C1.96556748,68.1196626 2.18558282,68.0791564 2.39831288,67.993773 L16.5865337,62.315046 C17.4829141,61.956319 17.918865,60.9384202 17.560138,60.0420399 C17.2017025,59.1459509 16.1832209,58.71 15.2874233,59.068727 Z" id="Path"></path>
                    <path d="M93.5444018,65.0088497 L79.4957669,58.990046 C78.606089,58.6091718 77.5803221,59.0206442 77.1997393,59.9085736 C76.8194479,60.7962117 77.2309202,61.8240184 78.1182669,62.2046012 L92.1669018,68.2234049 C92.3918712,68.3195706 92.625,68.3650307 92.8546319,68.3650307 C93.5330368,68.3650307 94.1785123,67.9678374 94.4629294,67.3045859 C94.8432209,66.4172393 94.4320399,65.3891411 93.5444018,65.0088497 Z" id="Path"></path>
                    <path d="M78.7692791,36.306319 C78.9855061,36.306319 79.2052301,36.2658129 79.4185429,36.1804294 L93.6102607,30.5005368 C94.5066411,30.1418098 94.942592,29.123911 94.583865,28.2275307 C94.2254294,27.3308589 93.2078221,26.8951994 92.3108589,27.2539264 L78.1191411,32.933819 C77.2227607,33.292546 76.7868098,34.3104448 77.1455368,35.2068252 C77.4191718,35.8904755 78.0754294,36.306319 78.7692791,36.306319 Z" id="Path"></path>
                </g>
            </g>
        </g>
    </g>
</svg>