<?xml version="1.0" encoding="UTF-8"?>
<svg width="100px" height="96px" viewBox="0 0 100 96" version="1.1" xmlns="http://www.w3.org/2000/svg" xmlns:xlink="http://www.w3.org/1999/xlink">
    <!-- Generator: Sketch 64 (93537) - https://sketch.com -->
    <title>Group 4</title>
    <desc>Created with Sketch.</desc>
    <g id="Page-1" stroke="none" stroke-width="1" fill="none" fill-rule="evenodd">
        <g id="Artboard" transform="translate(-949.000000, -460.000000)" fill="#6F00FF" fill-rule="nonzero">
            <g id="Group-4" transform="translate(949.000000, 460.000000)">
                <g id="Group-3">
                    <g id="Group-2">
                        <g id="tv">
                            <path d="M98.1538462,0 L1.84615385,0 C0.826769231,0 0,0.826461538 0,1.84615385 L0,67.8461538 C0,68.8658462 0.826769231,69.6923077 1.84615385,69.6923077 L40.3381538,69.6923077 L40.3381538,81.2307692 L29.5403077,81.2307692 C28.5209231,81.2307692 27.6941538,82.0572308 27.6941538,83.0769231 L27.6941538,93.2307692 C27.6941538,94.2504615 28.5209231,95.0769231 29.5403077,95.0769231 L72.3569231,95.0769231 C73.3763077,95.0769231 74.2030769,94.2504615 74.2030769,93.2307692 L74.2030769,83.0769231 C74.2030769,82.0572308 73.3763077,81.2307692 72.3569231,81.2307692 L61.02,81.2307692 L61.02,69.6923077 L98.1538462,69.6923077 C99.1735385,69.6923077 100,68.8658462 100,67.8461538 L100,1.84615385 C100,0.826461538 99.1735385,0 98.1538462,0 Z M96.3076923,3.69230769 L96.3076923,50.7692308 L3.69230769,50.7692308 L3.69230769,3.69230769 L96.3076923,3.69230769 Z M70.5110769,91.3846154 L31.3864615,91.3846154 L31.3864615,84.9230769 L42.1843077,84.9230769 L59.1741538,84.9230769 L70.5110769,84.9230769 L70.5110769,91.3846154 L70.5110769,91.3846154 Z M57.3276923,81.2307692 L44.0301538,81.2307692 L44.0301538,69.6923077 L57.3276923,69.6923077 L57.3276923,81.2307692 Z M3.69230769,66 L3.69230769,54.4615385 L96.3076923,54.4615385 L96.3076923,66 L3.69230769,66 Z" id="Shape"></path>
                        </g>
                    </g>
                </g>
            </g>
        </g>
    </g>
</svg>