<?xml version="1.0" encoding="UTF-8"?>
<svg width="42px" height="43px" viewBox="0 0 42 43" version="1.1" xmlns="http://www.w3.org/2000/svg" xmlns:xlink="http://www.w3.org/1999/xlink">
    <!-- Generator: Sketch 64 (93537) - https://sketch.com -->
    <title>Artboard</title>
    <desc>Created with Sketch.</desc>
    <g id="Artboard" stroke="none" stroke-width="1" fill="none" fill-rule="evenodd">
        <circle id="Oval" fill="#6F00FF" cx="21" cy="22" r="17"></circle>
        <path d="M24.4725,30.78 C25.1658333,30.78 25.8754167,30.6283333 26.60125,30.325 C27.3270833,30.0216667 28.0258333,29.6425 28.6975,29.1875 C29.3691667,28.7325 29.9975,28.2504167 30.5825,27.74125 C31.1675,27.2320833 31.6766667,26.7716667 32.11,26.36 C32.24,26.23 32.305,26.1216667 32.305,26.035 C32.305,25.905 32.1858333,25.84 31.9475,25.84 C31.6008333,25.84 31.3083333,25.9375 31.07,26.1325 C30.7233333,26.4575 30.3170833,26.8258333 29.85125,27.2375 C29.3854167,27.6491667 28.8870833,28.03375 28.35625,28.39125 C27.8254167,28.74875 27.28375,29.0466667 26.73125,29.285 C26.17875,29.5233333 25.6641667,29.6425 25.1875,29.6425 C24.8841667,29.6425 24.5808333,29.5720833 24.2775,29.43125 C23.9741667,29.2904167 23.70875,29.0683333 23.48125,28.765 C23.25375,28.4616667 23.0695833,28.0554167 22.92875,27.54625 C22.7879167,27.0370833 22.7175,26.4141667 22.7175,25.6775 L22.7175,25.6775 L22.7175,24.9625 C22.7175,24.7241667 22.7283333,24.5075 22.75,24.3125 C23.595,23.4675 24.4075,22.5466667 25.1875,21.55 C25.9675,20.5533333 26.7041667,19.51875 27.3975,18.44625 C28.0908333,17.37375 28.73,16.2904167 29.315,15.19625 C29.9,14.1020833 30.42,13.035 30.875,11.995 C31.07,11.5616667 31.2866667,11.0416667 31.525,10.435 C31.7633333,9.82833333 31.9854167,9.19458333 32.19125,8.53375 C32.3970833,7.87291667 32.565,7.21208333 32.695,6.55125 C32.825,5.89041667 32.89,5.3 32.89,4.78 C32.89,4.195 32.7870833,3.71833333 32.58125,3.35 C32.3754167,2.98166667 32.0125,2.7975 31.4925,2.7975 C31.0158333,2.7975 30.5933333,2.895 30.225,3.09 C29.8566667,3.285 29.52625,3.52875 29.23375,3.82125 C28.94125,4.11375 28.6758333,4.43875 28.4375,4.79625 C28.1991667,5.15375 27.9716667,5.495 27.755,5.82 C26.9316667,7.055 26.2166667,8.41458333 25.61,9.89875 C25.0033333,11.3829167 24.4508333,12.8075 23.9525,14.1725 C23.8441667,14.4758333 23.70875,14.90375 23.54625,15.45625 C23.38375,16.00875 23.2158333,16.6208333 23.0425,17.2925 C22.8691667,17.9641667 22.685,18.6520833 22.49,19.35625 C22.295,20.0604167 22.1,20.7266667 21.905,21.355 C21.5583333,21.0733333 21.1141667,20.9325 20.5725,20.9325 C20.0958333,20.9325 19.58125,21.0408333 19.02875,21.2575 C18.47625,21.4741667 17.9183333,21.7666667 17.355,22.135 C16.7916667,22.5033333 16.25,22.93125 15.73,23.41875 C15.21,23.90625 14.7495833,24.4154167 14.34875,24.94625 C13.9479167,25.4770833 13.6283333,26.01875 13.39,26.57125 C13.1516667,27.12375 13.0325,27.6491667 13.0325,28.1475 C13.0325,28.7108333 13.1733333,29.1495833 13.455,29.46375 C13.7366667,29.7779167 14.0941667,29.935 14.5275,29.935 C14.9825,29.935 15.5025,29.805 16.0875,29.545 C16.6725,29.285 17.24125,28.9870833 17.79375,28.65125 C18.34625,28.3154167 18.8445833,27.9795833 19.28875,27.64375 C19.7329167,27.3079167 20.0525,27.0641667 20.2475,26.9125 L20.2475,26.9125 L20.865,26.425 C20.865,27.0316667 20.9408333,27.6004167 21.0925,28.13125 C21.2441667,28.6620833 21.46625,29.1225 21.75875,29.5125 C22.05125,29.9025 22.425,30.21125 22.88,30.43875 C23.335,30.66625 23.8658333,30.78 24.4725,30.78 Z M23.0425,22.4925 C23.1725,21.9725 23.3025,21.40375 23.4325,20.78625 C23.5625,20.16875 23.7033333,19.5458333 23.855,18.9175 C24.0066667,18.2891667 24.1583333,17.6879167 24.31,17.11375 C24.4616667,16.5395833 24.6025,16.0358333 24.7325,15.6025 C25.2958333,13.9341667 25.9079167,12.2820833 26.56875,10.64625 C27.2295833,9.01041667 27.9933333,7.42333333 28.86,5.885 C28.99,5.66833333 29.1416667,5.43541667 29.315,5.18625 C29.4883333,4.93708333 29.6725,4.70416667 29.8675,4.4875 C30.0625,4.27083333 30.2575,4.0975 30.4525,3.9675 C30.6475,3.8375 30.8208333,3.7725 30.9725,3.7725 C31.2108333,3.7725 31.395,3.88625 31.525,4.11375 C31.655,4.34125 31.72,4.63916667 31.72,5.0075 C31.72,5.24583333 31.6875,5.495 31.6225,5.755 C31.3625,6.795 31.02125,7.87291667 30.59875,8.98875 C30.17625,10.1045833 29.77,11.0741667 29.38,11.8975 C28.99,12.7208333 28.5566667,13.5983333 28.08,14.53 C27.6033333,15.4616667 27.0941667,16.39875 26.5525,17.34125 C26.0108333,18.28375 25.4475,19.19375 24.8625,20.07125 C24.2775,20.94875 23.6708333,21.7558333 23.0425,22.4925 Z M15.3725,28.57 C15.0258333,28.57 14.8525,28.3641667 14.8525,27.9525 C14.8525,27.5625 15.0258333,27.0316667 15.3725,26.36 C15.7191667,25.6883333 16.1470833,25.0275 16.65625,24.3775 C17.1654167,23.7275 17.7179167,23.1695833 18.31375,22.70375 C18.9095833,22.2379167 19.4566667,22.005 19.955,22.005 C20.2366667,22.005 20.4858333,22.08625 20.7025,22.24875 C20.9191667,22.41125 21.1033333,22.6875 21.255,23.0775 C21.2116667,23.3591667 21.1683333,23.63 21.125,23.89 C21.0816667,24.15 21.0383333,24.4208333 20.995,24.7025 C20.4966667,25.1791667 19.9929167,25.6341667 19.48375,26.0675 C18.9745833,26.5008333 18.4491667,26.9125 17.9075,27.3025 C17.2791667,27.7575 16.7591667,28.0825 16.3475,28.2775 C15.9358333,28.4725 15.6108333,28.57 15.3725,28.57 Z" id="d" fill="#FFFFFF" fill-rule="nonzero"></path>
    </g>
</svg>