<?xml version="1.0" encoding="UTF-8"?>
<svg width="100px" height="100px" viewBox="0 0 100 100" version="1.1" xmlns="http://www.w3.org/2000/svg" xmlns:xlink="http://www.w3.org/1999/xlink">
    <!-- Generator: Sketch 64 (93537) - https://sketch.com -->
    <title>Group</title>
    <desc>Created with Sketch.</desc>
    <g id="Page-1" stroke="none" stroke-width="1" fill="none" fill-rule="evenodd">
        <g id="Artboard" transform="translate(-1055.000000, -519.000000)">
            <g id="Group" transform="translate(1055.000000, 519.000000)">
                <rect id="Rectangle" fill="#FFFFFF" x="0" y="0" width="100" height="100"></rect>
                <g id="writer" transform="translate(10.000000, 3.000000)" fill="#6F00FF" fill-rule="nonzero">
                    <path d="M77.5556615,35.7629692 C82.1326154,31.1863077 81.6207846,23.2273538 76.4150769,18.0213538 C74.4633385,16.0696154 72.1313077,14.7700154 69.7361385,14.1415538 L69.7361385,1.75384615 C69.7361385,0.785430769 68.951,0 67.9822923,0 L2.04293846,0 C1.07423077,0 0.289092308,0.785430769 0.289092308,1.75384615 L0.289092308,93.2461538 C0.289092308,94.2148615 1.07423077,95 2.04293846,95 L57.4311538,95 C57.4934154,95 57.5548,94.9964923 57.6153077,94.9903538 C57.6237846,94.9891846 57.6325538,94.9874308 57.6410308,94.9862615 C57.6933538,94.9801231 57.7450923,94.9722308 57.7959538,94.9614154 C57.8053077,94.9593692 57.8143692,94.9564462 57.8237231,94.9544 C57.8734154,94.943 57.9225231,94.9301385 57.9704615,94.9146462 C57.9824462,94.9108462 57.9938462,94.9058769 58.0058308,94.9017846 C58.0499692,94.8862923 58.0941077,94.8699231 58.1367846,94.8509231 C58.1519846,94.8444923 58.1666,94.8366 58.1812154,94.8295846 C58.2195077,94.8117538 58.2572154,94.7927538 58.2937538,94.772 C58.3118769,94.7620615 58.3288308,94.7512462 58.3463692,94.7404308 C58.3785231,94.7205538 58.4109692,94.6998 58.4419538,94.6781692 C58.4606615,94.6647231 58.4790769,94.6506923 58.4972,94.6363692 C58.5255538,94.6147385 58.5530308,94.5925231 58.5799231,94.5691385 C58.5983385,94.5530615 58.6167538,94.5366923 58.6342923,94.5197385 C58.6597231,94.4954769 58.6845692,94.4709231 58.7085385,94.4452 C58.7181846,94.4349692 58.729,94.4259077 58.7383538,94.4148 L69.2894923,82.6093692 C69.2938769,82.6044 69.2968,82.5988462 69.3008923,82.5938769 C69.3628615,82.5231385 69.4184,82.4477231 69.4683846,82.3679231 C69.4754,82.3565231 69.4824154,82.3451231 69.4891385,82.3337231 C69.5373692,82.2527538 69.5791692,82.1679846 69.6139538,82.0791231 C69.6180462,82.0688923 69.6215538,82.0580769 69.6256462,82.0475538 C69.6586769,81.9575231 69.6855692,81.8651538 69.7039846,81.7689846 C69.7057385,81.7602154 69.7066154,81.7508615 69.7080769,81.7418 C69.7253231,81.6438769 69.7358462,81.5436154 69.7358462,81.4410154 L69.7358462,43.5795692 L77.4931077,35.8138308 C77.5135692,35.7954154 77.5363692,35.7822615 77.5556615,35.7629692 Z M76.1598923,31.8735231 L62.5012308,18.2022923 C63.9174615,17.3817846 65.6026154,17.0698923 67.3316154,17.2464462 C67.5330154,17.3268308 67.7522462,17.3727231 67.9822923,17.3727231 C68.0378308,17.3727231 68.0924923,17.3692154 68.1462769,17.3645385 C70.1889231,17.7515538 72.2418,18.8085385 73.9345538,20.5012923 C77.2610154,23.8283385 78.0870769,28.5771692 76.1598923,31.8735231 Z M59.185,88.6519538 L59.185,83.1945692 L64.0627385,83.1945692 L59.185,88.6519538 Z M66.2284462,79.6868769 L57.4311538,79.6868769 C56.4627385,79.6868769 55.6773077,80.4720154 55.6773077,81.4407231 L55.6773077,91.4923077 L3.79678462,91.4923077 L3.79678462,3.50769231 L66.2284462,3.50769231 L66.2284462,13.7068923 C63.4965385,13.7440154 60.8874,14.6811538 58.8772,16.5498769 C58.7766462,16.6156462 58.6822308,16.6913538 58.596,16.7775846 L16.3271385,59.0923385 C16.2502615,59.1692154 16.1839077,59.2536923 16.1231077,59.3422615 C16.1017692,59.3729538 16.0848154,59.4059846 16.0658154,59.4381385 C16.0304462,59.4974769 15.9977077,59.5574 15.9696462,59.6205385 C15.9524,59.6591231 15.9377846,59.698 15.9234615,59.7374615 C15.9012462,59.7985538 15.8831231,59.8605231 15.8682154,59.9236615 C15.8585692,59.964 15.8489231,60.0034615 15.8422,60.0438 C15.8386923,60.0630923 15.8322615,60.0818 15.8296308,60.1013846 L13.3350769,78.9523077 C13.2637538,79.4907385 13.4461538,80.0318 13.8284923,80.4176462 C14.1599692,80.7517538 14.6089538,80.9362 15.0737231,80.9362 C15.1453385,80.9362 15.2175385,80.9318154 15.2897385,80.9227538 L34.2628462,78.5667538 C34.2844769,78.5641231 34.3052308,78.5568154 34.3268615,78.5533077 C34.3695385,78.5465846 34.4113385,78.5366462 34.4537231,78.5267077 C34.5151077,78.5120923 34.5753231,78.4945538 34.6343692,78.4732154 C34.6758769,78.4583077 34.7162154,78.4431077 34.7565538,78.4252769 C34.8182308,78.3980923 34.8766923,78.3659385 34.9348615,78.3317385 C34.9684769,78.3118615 35.0026769,78.2940308 35.0357077,78.2718154 C35.1219385,78.2127692 35.2040769,78.1472923 35.2792,78.0727538 C35.2815385,78.0707077 35.2841692,78.0692462 35.2862154,78.0669077 C35.2865077,78.0666154 35.2865077,78.0663231 35.2868,78.0660308 C35.2870923,78.0660308 35.2873846,78.0657385 35.2876769,78.0654462 L66.2284462,47.0910615 L66.2284462,79.6868769 Z M18.8404,64.0867077 L30.2708,75.5279231 L17.1105231,77.1622154 L18.8404,64.0867077 Z M34.0465385,74.3443692 L20.0467538,60.3317231 L59.8368462,20.4983692 L73.8366308,34.5110154 L34.0465385,74.3443692 Z" id="Shape"></path>
                </g>
            </g>
        </g>
    </g>
</svg>